<svg xmlns="http://www.w3.org/2000/svg" viewBox="0 0 100 100">
   <g aria-label="ജ" fill="#F92672">
      <path d="m 67.029128,75.791123 -14.904126,8.150694 q -8.441789,4.599319 -15.719194,6.928089 -7.277405,2.32877 -13.739741,2.32877 -5.123293,0 -9.14042,-1.280824 Q 9.5667386,90.695248 6.7722152,88.424698 4.0359109,86.095928 2.5804299,82.89387 1.1831682,79.691812 1.1831682,75.732904 q 0,-4.191785 1.3972617,-7.510282 1.455481,-3.376716 4.7739776,-6.054801 3.3184965,-2.678085 8.7328855,-4.773977 5.472609,-2.154112 13.565083,-3.958909 4.250005,-0.931508 9.023982,-1.979454 4.832197,-1.106165 9.722613,-2.212331 4.890416,-1.106166 9.547955,-2.154112 4.715759,-1.106165 8.732886,-2.095892 4.59932,-1.106166 7.859597,-2.503428 3.260278,-1.455481 5.297951,-3.202058 2.095893,-1.804796 3.027401,-3.958908 0.989727,-2.212331 0.989727,-4.948635 0,-2.678085 -0.931508,-4.65754 -0.931508,-1.979454 -2.503427,-3.318496 -1.513701,-1.339043 -3.493155,-1.979454 -1.979454,-0.698631 -4.133566,-0.698631 -2.910962,0 -5.414389,0.873288 -2.445208,0.873289 -4.250004,2.736305 -1.804797,1.863015 -2.852743,4.773977 -0.989727,2.852743 -0.989727,6.86987 V 41.55821 H 44.556501 v -6.695212 q 0,-3.726031 -1.164384,-6.753432 -1.164385,-3.0274 -3.260278,-5.181512 -2.095892,-2.154112 -5.006854,-3.318497 -2.910962,-1.222604 -6.345897,-1.222604 -4.773978,0 -8.267132,1.57192 -3.434936,1.571919 -4.715759,4.191785 l 0.407535,0.232877 q 1.280823,-0.640412 2.736304,-0.931508 1.5137,-0.349315 3.84247,-0.349315 2.445208,0 4.715758,0.931507 2.32877,0.931508 4.075347,2.678085 1.746577,1.688358 2.794523,4.133566 1.047947,2.386989 1.047947,5.35617 0,3.609593 -1.455481,6.462336 -1.397262,2.852743 -3.784251,4.890416 -2.386989,1.979454 -5.589047,3.08562 -3.143839,1.047946 -6.695212,1.047946 -3.958908,0 -7.219186,-1.397262 Q 7.4126268,48.893835 5.025638,46.332188 2.6968684,43.712322 1.4160452,40.102729 0.1352219,36.493137 0.1352219,32.068474 q 0,-5.29795 2.2123311,-9.89727 2.2705503,-4.657539 6.1712393,-8.034255 3.9589087,-3.434935 9.2568587,-5.3561702 5.297951,-1.9794541 11.352752,-1.9794541 9.023982,0 14.671248,3.2602773 5.705486,3.260277 8.150694,8.965763 h 0.349315 q 2.794524,-5.938362 8.616448,-9.0822014 5.821923,-3.1438389 13.73974,-3.1438389 5.006855,0 9.547955,1.6301387 4.59932,1.5719196 8.034255,4.4828816 3.493155,2.852743 5.530828,6.86987 2.095893,4.017128 2.095893,8.907544 0,6.520554 -2.095893,11.061655 -2.037673,4.482881 -5.938362,7.62672 -3.90069,3.143839 -9.489736,5.297951 -5.589047,2.154112 -12.633575,3.900689 -3.726032,0.931508 -8.208913,2.037674 -4.482881,1.106165 -9.023982,2.212331 -4.541101,1.106165 -8.849324,2.154111 -4.308224,1.047947 -7.68494,1.863016 -4.715758,1.164385 -8.267132,2.095893 -3.493154,0.931508 -5.821924,2.095892 -2.328769,1.106166 -3.493154,2.619866 -1.164385,1.455481 -1.164385,3.726031 0,2.794524 1.863016,4.191786 1.863015,1.397261 4.832196,1.397261 2.736305,0 5.938363,-0.931507 3.260277,-0.989728 6.986309,-2.561647 3.726031,-1.571919 7.801378,-3.551374 4.133566,-2.037673 8.616447,-4.133566 4.657539,-2.212331 8.500009,-3.958908 3.900689,-1.804796 7.335624,-3.0274 3.434935,-1.222604 6.578774,-1.863016 3.202058,-0.698631 6.462336,-0.698631 3.667812,0 6.811651,1.164385 3.143838,1.164385 5.472608,3.318497 2.32877,2.154111 3.667812,5.239731 1.339043,3.027401 1.339043,6.811651 0,3.667812 -1.339043,6.695213 -1.339042,3.0274 -3.726031,5.181512 -2.32877,2.154112 -5.530828,3.318497 -3.143839,1.222604 -6.86987,1.222604 -3.726031,0 -6.636993,-0.989728 -2.852743,-0.989727 -4.890416,-2.678085 -1.979455,-1.746577 -3.027401,-3.958908 -1.047946,-2.27055 -1.047946,-4.773977 0,-1.280824 0.232877,-2.503428 0.232877,-1.222604 0.75685,-2.154112 z m 14.089056,-5.589047 q -2.095893,0 -3.726032,1.57192 -1.571919,1.571919 -1.571919,4.017127 0,2.445208 1.5137,3.958908 1.5137,1.455481 3.609593,1.455481 2.212331,0 3.667812,-1.5137 1.5137,-1.5137 1.5137,-3.958908 0,-2.445208 -1.455481,-3.958908 -1.455481,-1.57192 -3.551373,-1.57192 z M 17.659213,30.729432 q -2.212331,0 -3.726031,1.339042 -1.455481,1.339043 -1.455481,4.017128 0,1.047946 0.349315,2.037673 0.407535,0.931508 1.106166,1.630139 0.69863,0.698631 1.630138,1.164385 0.931508,0.407535 1.979454,0.407535 2.212331,0 3.609593,-1.397262 1.397262,-1.397262 1.397262,-3.84247 0,-2.678085 -1.455481,-4.017128 -1.397262,-1.339042 -3.434935,-1.339042 z" />
   </g>
</svg>
